<?xml version="1.0" encoding="utf-8"?>
<!-- Generator: Adobe Illustrator 15.0.0, SVG Export Plug-In . SVG Version: 6.00 Build 0)  -->
<!DOCTYPE svg PUBLIC "-//W3C//DTD SVG 1.1//EN" "http://www.w3.org/Graphics/SVG/1.1/DTD/svg11.dtd">
<svg version="1.1" id="Layer_1" xmlns="http://www.w3.org/2000/svg" xmlns:xlink="http://www.w3.org/1999/xlink" x="0px" y="0px"
	 width="609px" height="143px" viewBox="0 0 609 143" enable-background="new 0 0 609 143" xml:space="preserve">
<g>
	<g>
		<g>
			<path fill="#1C75BC" d="M188.413,62.24c0,0-136.922-0.188-138.171-0.068c-9.236,0.859-16.713,3.503-17.3,17.292
				c-0.593,14.073,5.911,20.396,24.992,20.396l130.334-0.021v15.216c0,0-108.599-0.17-112.497,0
				c-3.896,0.164-5.784-3.827-12.54-3.669c-9.343-0.003-10.442,3.691-13.156,3.669c-21.832-1.473-34.283-11.846-33.523-35.829
				c0.897-28.537,24.483-32.252,33.69-32.252c1.317,0,6.15,3.669,12.651,3.669c8.087,0,8.087-3.669,12.849-3.596h112.672V62.24z"/>
			<path fill="#0D4E80" d="M102.145,107.161c40.582,0,85.448,0.013,86.123,0V99.84c-1.107,0-101.258-0.247-136.627-0.247
				c-12.452,0-18.834-8.081-18.7-20.128c0.138-11.599,7.159-17.468,17.98-17.305l137.492,0.08V54.79H50.314
				C33.043,54.493,24.86,67.285,24.547,79.313c-0.348,13.15,8.388,26.779,25.753,27.375
				C62.106,107.043,81.535,107.161,102.145,107.161L102.145,107.161z"/>
		</g>
		<path fill="#ED1C24" d="M413.985,36.147c0,0,152.113,26.167,153.341,26.42c11.498,2.28,19.082,3.033,18.516,18.481
			c-0.459,12.749-6.719,19.14-26.209,18.815L403.696,99.84v15.216c0,0,105.796,0.006,140.671,0c2.502-2.913,11.32-3.66,11.32-3.66
			c7.744,0.065,8.869,2.181,10.236,3.537c24.176-1.316,34.209-12.38,35.096-33.883c1.285-30.686-24.039-32.123-33.693-34.075
			c-0.209-0.041-5.779,2.443-12.559,1.279c-2.834-0.485-5.773-2.508-8.354-4.875c-41.365-7.086-129.642-22.167-129.642-22.167
			L413.985,36.147z"/>
		<path fill="#F7941E" d="M213.757,62.244c0,0,136.922-0.188,138.164-0.071c9.242,0.862,16.718,3.506,17.305,17.295
			c0.59,14.074-5.912,20.397-25.002,20.397L213.891,99.84v15.216c0,0,108.609-0.164,112.505,0c3.893,0.167,5.786-3.824,12.538-3.669
			c9.342,0,10.441,3.691,13.159,3.669c21.824-1.47,34.282-11.84,33.522-35.826c-0.896-28.533-24.48-32.255-33.695-32.255
			c-1.315,0-6.141,3.669-12.643,3.669c-8.091,0-8.091-3.669-12.854-3.589H213.757V62.244z"/>
		<path fill="#1C75BC" d="M145.026,27.909c0,4.967-4.029,8.998-8.998,8.998c-4.958,0-8.984-4.031-8.984-8.998
			c0-4.955,4.026-8.989,8.984-8.989C140.997,18.92,145.026,22.954,145.026,27.909"/>
		<path fill="#ED1C24" d="M500.434,129.207c0,4.964-4.033,8.989-8.998,8.989c-4.955,0-8.979-4.024-8.979-8.989
			c0-4.97,4.023-8.992,8.979-8.992C496.4,120.215,500.434,124.237,500.434,129.207"/>
		<path fill="#1C75BC" d="M117.963,27.909c0,4.967-4.018,8.998-8.984,8.998c-4.964,0-8.988-4.031-8.988-8.998
			c0-4.955,4.023-8.989,8.988-8.989C113.946,18.92,117.963,22.954,117.963,27.909"/>
		<path fill="#E7731F" d="M300.025,107.164c-40.583,0-85.449,0.009-86.134,0V99.84c1.109,0,101.266-0.247,136.633-0.247
			c12.455,0,18.844-8.078,18.701-20.125c-0.136-11.599-7.16-17.465-17.98-17.308l-137.488,0.083v-7.451h138.089
			c17.274-0.299,25.454,12.495,25.775,24.521c0.343,13.153-8.39,26.785-25.757,27.375
			C340.065,107.046,320.629,107.164,300.025,107.164L300.025,107.164z"/>
		<path fill="#BA141A" d="M504.877,107.204c-47.596,0-100.217,0.009-101.021,0V99.88c1.301,0,118.763-0.244,160.246-0.244
			c14.609,0,22.09-8.078,21.93-20.125c-0.158-11.603-4.598-15.078-21.086-17.308l-150.96-26.056l1.563-8.387L565.652,54.83
			c24.369,3.528,27.193,13.601,27.561,25.633c0.398,13.147-7.17,25.67-27.539,26.266
			C551.836,107.09,529.041,107.204,504.877,107.204L504.877,107.204z"/>
	</g>
	<g>
		<defs>
			<path id="SVGID_1_" d="M349.039,62.868v0.031c8.424,0.287,15.177,8.35,15.177,18.259c0,10.104-6.852,17.882-15.488,17.882
				c-1.078,0-2.082,0.056-3.297,0.043H218.211c7.139-1.699,9.975-9.079,9.975-17.925c0-8.964-2.989-16.409-10.272-17.975v-0.315
				H349.039z"/>
		</defs>
		<clipPath id="SVGID_2_">
			<use xlink:href="#SVGID_1_"  overflow="visible"/>
		</clipPath>
		<g clip-path="url(#SVGID_2_)">
			<rect x="223.64" y="66.766" fill="#58595B" width="142.86" height="2.854"/>
			<rect x="223.64" y="73.148" fill="#58595B" width="142.86" height="2.86"/>
			<rect x="223.64" y="79.526" fill="#58595B" width="142.86" height="2.857"/>
			<rect x="223.64" y="85.915" fill="#58595B" width="142.86" height="2.851"/>
			<rect x="223.64" y="92.293" fill="#58595B" width="142.86" height="2.86"/>
		</g>
	</g>
	<g>
		<defs>
			<path id="SVGID_3_" d="M51.667,62.868v0.031c-8.423,0.287-15.17,8.35-15.17,18.259c0,10.104,6.849,17.882,15.488,17.882
				c1.075,0,2.083,0.056,3.302,0.043h127.21c-7.136-1.699-9.973-9.079-9.973-17.925c0-8.964,2.99-16.409,10.272-17.975v-0.315
				H51.667z"/>
		</defs>
		<clipPath id="SVGID_4_">
			<use xlink:href="#SVGID_3_"  overflow="visible"/>
		</clipPath>
		<g clip-path="url(#SVGID_4_)">
			<rect x="34.212" y="66.766" fill="#58595B" width="142.856" height="2.854"/>
			<rect x="34.212" y="73.148" fill="#58595B" width="142.856" height="2.86"/>
			<rect x="34.212" y="79.526" fill="#58595B" width="142.856" height="2.857"/>
			<rect x="34.212" y="85.915" fill="#58595B" width="142.856" height="2.851"/>
			<rect x="34.212" y="92.293" fill="#58595B" width="142.856" height="2.86"/>
		</g>
	</g>
	<path fill="#1C75BC" d="M144.781,28.101c0,4.961-4.028,8.986-8.992,8.986c-4.964,0-8.991-4.025-8.991-8.986
		s4.026-8.992,8.991-8.992C140.752,19.108,144.781,23.14,144.781,28.101"/>
	<path fill="#1C75BC" d="M117.718,28.101c0,4.961-4.021,8.986-8.984,8.986c-4.961,0-8.991-4.025-8.991-8.986s4.03-8.992,8.991-8.992
		C113.697,19.108,117.718,23.14,117.718,28.101"/>
	<g>
		<defs>
			<path id="SVGID_5_" d="M413.948,39.625c0,0,20.007,31.406-6.888,59.461l164.991-0.405c0,0,16.035-7.238,4.379-34.053
				L413.948,39.625z"/>
		</defs>
		<clipPath id="SVGID_6_">
			<use xlink:href="#SVGID_5_"  overflow="visible"/>
		</clipPath>
		<g clip-path="url(#SVGID_6_)">
			<g>
				<polygon fill="#58595B" points="410.63,45.031 582.033,67.303 581.521,70.121 410.124,47.852 				"/>
				<polygon fill="#58595B" points="409.852,58.058 582.201,72.984 581.873,75.823 409.522,60.9 				"/>
				<polygon fill="#58595B" points="409.466,69.911 582.133,79.622 581.932,82.474 409.271,72.765 				"/>
				<polygon fill="#58595B" points="409.333,81.732 582.586,85.828 582.467,88.686 409.209,84.586 				"/>
				<rect x="409.231" y="92.293" fill="#58595B" width="173.236" height="2.86"/>
			</g>
		</g>
	</g>
</g>
</svg>
